<?xml version="1.0" encoding="UTF-8" standalone="no"?>
<!-- Created with Vectornator for iOS (http://vectornator.io/) -->


<svg
   height="160.02313"
   style="clip-rule:evenodd;fill-rule:nonzero;stroke-linecap:round;stroke-linejoin:round"
   xml:space="preserve"
   width="149.60516"
   version="1.1"
   viewBox="0 0 149.60517 160.02313"
   id="svg2055"
   sodipodi:docname="hedy_lightbulb_3_small.svg"
   inkscape:version="1.1.1 (c3084ef, 2021-09-22)"
   xmlns:inkscape="http://www.inkscape.org/namespaces/inkscape"
   xmlns:sodipodi="http://sodipodi.sourceforge.net/DTD/sodipodi-0.dtd"
   xmlns:xlink="http://www.w3.org/1999/xlink"
   xmlns="http://www.w3.org/2000/svg"
   xmlns:svg="http://www.w3.org/2000/svg"
   xmlns:vectornator="http://vectornator.io"><sodipodi:namedview
   id="namedview2057"
   pagecolor="#ffffff"
   bordercolor="#111111"
   borderopacity="1"
   inkscape:pageshadow="0"
   inkscape:pageopacity="0"
   inkscape:pagecheckerboard="1"
   showgrid="false"
   inkscape:snap-midpoints="false"
   inkscape:zoom="4.0745566"
   inkscape:cx="36.200258"
   inkscape:cy="61.110944"
   inkscape:window-width="2227"
   inkscape:window-height="1250"
   inkscape:window-x="352"
   inkscape:window-y="25"
   inkscape:window-maximized="0"
   inkscape:current-layer="layer2"
   fit-margin-top="0"
   fit-margin-left="0"
   fit-margin-right="0"
   fit-margin-bottom="0" />
<metadata
   id="metadata1050">
<vectornator:setting
   key="DimensionsVisible"
   value="1" />
<vectornator:setting
   key="PencilOnly"
   value="0" />
<vectornator:setting
   key="SnapToPoints"
   value="0" />
<vectornator:setting
   key="GuidesVisible"
   value="1" />
<vectornator:setting
   key="OutlineMode"
   value="0" />
<vectornator:setting
   key="RulersVisible"
   value="1" />
<vectornator:setting
   key="SnapToEdges"
   value="0" />
<vectornator:setting
   key="CMYKEnabledKey"
   value="0" />
<vectornator:setting
   key="DisplayWhiteBackground"
   value="1" />
<vectornator:setting
   key="doHistoryDisabled"
   value="0" />
<vectornator:setting
   key="TimeLapseWatermarkDisabled"
   value="0" />
<vectornator:setting
   key="SnapToGuides"
   value="1" />
<vectornator:setting
   key="Units"
   value="Points" />
<vectornator:setting
   key="SnapToGrid"
   value="0" />
<vectornator:setting
   key="IsolateActiveLayer"
   value="1" />
<vectornator:setting
   key="DynamicGuides"
   value="0" />
</metadata>
<defs
   id="defs1159"><linearGradient
   inkscape:collect="always"
   id="linearGradient16147"><stop
     style="stop-color:#f9df1f;stop-opacity:1;"
     offset="0"
     id="stop16143" /><stop
     style="stop-color:#f9df1f;stop-opacity:0;"
     offset="1"
     id="stop16145" /></linearGradient><linearGradient
   inkscape:collect="always"
   id="linearGradient15763"><stop
     style="stop-color:#f9df1f;stop-opacity:1;"
     offset="0"
     id="stop15759" /><stop
     style="stop-color:#f9df1f;stop-opacity:0;"
     offset="1"
     id="stop15761" /></linearGradient><linearGradient
   inkscape:collect="always"
   id="linearGradient15755"><stop
     style="stop-color:#f9df1f;stop-opacity:1;"
     offset="0"
     id="stop15751" /><stop
     style="stop-color:#f9df1f;stop-opacity:0;"
     offset="1"
     id="stop15753" /></linearGradient><linearGradient
   inkscape:collect="always"
   id="linearGradient15683"><stop
     style="stop-color:#f9df1f;stop-opacity:1;"
     offset="0"
     id="stop15679" /><stop
     style="stop-color:#f9df1f;stop-opacity:0;"
     offset="1"
     id="stop15681" /></linearGradient><linearGradient
   inkscape:collect="always"
   id="linearGradient15511"><stop
     style="stop-color:#f9df1f;stop-opacity:1;"
     offset="0"
     id="stop15507" /><stop
     style="stop-color:#f9df1f;stop-opacity:0;"
     offset="1"
     id="stop15509" /></linearGradient><linearGradient
   inkscape:collect="always"
   id="linearGradient15439"><stop
     style="stop-color:#f9df1f;stop-opacity:1;"
     offset="0"
     id="stop15435" /><stop
     style="stop-color:#f9df1f;stop-opacity:0;"
     offset="1"
     id="stop15437" /></linearGradient><linearGradient
   inkscape:collect="always"
   id="linearGradient15087"><stop
     style="stop-color:#f9df1f;stop-opacity:1;"
     offset="0"
     id="stop15083" /><stop
     style="stop-color:#f9df1f;stop-opacity:0;"
     offset="1"
     id="stop15085" /></linearGradient><linearGradient
   inkscape:collect="always"
   id="linearGradient15079"><stop
     style="stop-color:#f9df1f;stop-opacity:1;"
     offset="0"
     id="stop15075" /><stop
     style="stop-color:#f9df1f;stop-opacity:0;"
     offset="1"
     id="stop15077" /></linearGradient><inkscape:path-effect
   effect="lattice2"
   gridpoint0="256.005,114.08022"
   gridpoint1="285.457,114.08022"
   gridpoint2="211.55713,153.36671"
   gridpoint3="285.457,188.05773"
   gridpoint4="263.368,114.08022"
   gridpoint5="278.094,114.08022"
   gridpoint6="263.368,188.05773"
   gridpoint7="278.094,188.05773"
   gridpoint8x9="270.731,114.08022"
   gridpoint10x11="270.731,188.05773"
   gridpoint12="256.005,132.5746"
   gridpoint13="285.457,132.5746"
   gridpoint14="227.09582,151.85648"
   gridpoint15="285.457,169.56335"
   gridpoint16="260.47708,136.7303"
   gridpoint17="280.26219,132.93597"
   gridpoint18="258.48958,136.49848"
   gridpoint19="249.54618,153.30194"
   gridpoint20x21="261.15483,127.51549"
   gridpoint22x23="270.731,169.56335"
   gridpoint24x26="259.61865,152.51444"
   gridpoint25x27="285.457,151.06898"
   gridpoint28x30="266.80097,151.06898"
   gridpoint29x31="278.094,151.06898"
   gridpoint32x33x34x35="282.83672,146.19055"
   id="path-effect9694"
   is_visible="true"
   lpeversion="1"
   horizontal_mirror="false"
   vertical_mirror="false"
   perimetral="false"
   live_update="true" /><inkscape:path-effect
   effect="bspline"
   id="path-effect2542"
   is_visible="true"
   lpeversion="1"
   weight="33.333333"
   steps="2"
   helper_size="0"
   apply_no_weight="true"
   apply_with_weight="true"
   only_selected="false" /><inkscape:path-effect
   effect="bspline"
   id="path-effect9904"
   is_visible="true"
   lpeversion="1"
   weight="33.333333"
   steps="2"
   helper_size="0"
   apply_no_weight="true"
   apply_with_weight="true"
   only_selected="false" /><inkscape:path-effect
   effect="bspline"
   id="path-effect9467"
   is_visible="true"
   lpeversion="1"
   weight="33.333333"
   steps="2"
   helper_size="0"
   apply_no_weight="true"
   apply_with_weight="true"
   only_selected="false" /><inkscape:path-effect
   effect="bspline"
   id="path-effect9463"
   is_visible="true"
   lpeversion="1"
   weight="33.333333"
   steps="2"
   helper_size="0"
   apply_no_weight="true"
   apply_with_weight="true"
   only_selected="false" />
<path
   d="M 0,314.16 H 558.545 V -0.0213606 H 0 Z"
   id="Mask" />
<path
   d="m 245.343,353.521 h 95.325 V 177.733 h -95.325 z"
   id="Mask_2" />
<path
   d="m 245.343,353.521 h 95.325 V 177.733 h -95.325 z"
   id="Mask_3" />
<path
   d="m 249.443,182.311 h 79.901 V 94.1769 h -79.901 z"
   id="Mask_4" />
<path
   d="m 249.443,182.311 h 79.901 V 94.1769 h -79.901 z"
   id="Mask_5" />
<path
   d="m 296.722,131.024 h 4.358 v -4.395 h -4.358 z"
   id="Mask_6" />
<path
   d="m 296.722,131.024 h 4.358 v -4.395 h -4.358 z"
   id="Mask_7" />
<path
   d="m 306.199,131.667 h 4.248 v -4.396 h -4.248 z"
   id="Mask_8" />
<path
   d="m 306.199,131.667 h 4.248 v -4.396 h -4.248 z"
   id="Mask_9" />
<path
   d="m 288.234,167.652 h 22.957 v -26.914 h -22.957 z"
   id="Mask_10" />
<path
   d="m 288.234,167.652 h 22.957 v -26.914 h -22.957 z"
   id="Mask_11" />
<path
   d="m 239.491,175.824 h 39.937 V 96.5053 h -39.937 z"
   id="Mask_12" />
<path
   d="m 239.491,175.824 h 39.937 V 96.5053 h -39.937 z"
   id="Mask_13" />
<path
   d="m 252.156,182.88 h 27.762 v -76.432 h -27.762 z"
   id="Mask_14" />
<path
   d="m 252.156,182.88 h 27.762 v -76.432 h -27.762 z"
   id="Mask_15" />
<path
   d="m 230.059,172.544 h 53.058 V 89.1425 h -53.058 z"
   id="Mask_16" />
<path
   d="m 230.059,172.544 h 53.058 V 89.1425 h -53.058 z"
   id="Mask_17" />
<path
   d="m 253.95,190.427 h 33.561 V 112.029 H 253.95 Z"
   id="Mask_18" />
<path
   d="m 253.95,190.427 h 33.561 V 112.029 H 253.95 Z"
   id="Mask_19" />
<path
   d="m 234.161,173.762 h 14.441 v -48.347 h -14.441 z"
   id="Mask_20" />
<path
   d="m 234.161,173.762 h 14.441 v -48.347 h -14.441 z"
   id="Mask_21" />
<path
   d="m 295.931,189.423 h 42.403 V 98.429 h -42.403 z"
   id="Mask_22" />
<path
   d="m 295.931,189.423 h 42.403 V 98.429 h -42.403 z"
   id="Mask_23" />
<path
   d="m 280.248,155.916 h 49.983 V 91.5598 h -49.983 z"
   id="Mask_24" />
<path
   d="m 280.248,155.916 h 49.983 V 91.5598 h -49.983 z"
   id="Mask_25" />
<path
   d="M 293.635,176.845 H 339.77 V 90.5364 h -46.135 z"
   id="Mask_26" />
<path
   d="M 293.635,176.845 H 339.77 V 90.5364 h -46.135 z"
   id="Mask_27" />
<path
   d="m 283.693,165.329 h 55.121 V 97.6872 h -55.121 z"
   id="Mask_28" />
<path
   d="m 283.693,165.329 h 55.121 V 97.6872 h -55.121 z"
   id="Mask_29" />
<path
   d="m 298.013,159.742 h 31.144 v -53.245 h -31.144 z"
   id="Mask_30" />
<path
   d="m 298.013,159.742 h 31.144 v -53.245 h -31.144 z"
   id="Mask_31" />
<path
   d="m 278.619,105.1 h 38.378 V 82.5892 h -38.378 z"
   id="Mask_32" />
<path
   d="m 278.619,105.1 h 38.378 V 82.5892 h -38.378 z"
   id="Mask_33" />
<path
   d="M 154.378,274.605 H 437.63 V -8.64709 H 154.378 Z"
   id="Mask_34" />
<path
   d="M 154.378,274.605 H 437.63 V -8.64709 H 154.378 Z"
   id="Mask_35" />
<path
   d="m 248.671,58.6491 h 11.032 V 34.7795 h -11.032 z"
   id="Mask_36" />
<path
   d="m 248.671,58.6491 h 11.032 V 34.7795 h -11.032 z"
   id="Mask_37" />
<path
   d="m 249.788,51.9967 h 22.806 v -9.8516 h -22.806 z"
   id="Mask_38" />
<path
   d="m 249.788,51.9967 h 22.806 v -9.8516 h -22.806 z"
   id="Mask_39" />
<path
   d="m 264.774,54.4956 h 10.752 V 28.051 h -10.752 z"
   id="Mask_40" />
<path
   d="m 264.774,54.4956 h 10.752 V 28.051 h -10.752 z"
   id="Mask_41" />
<path
   d="M 276.138,54.3924 H 294.55 V 40.1161 h -18.412 z"
   id="Mask_42" />
<path
   d="M 276.138,54.3924 H 294.55 V 40.1161 h -18.412 z"
   id="Mask_43" />
<path
   d="m 293.557,54.9937 h 18.426 V 28.2495 h -18.426 z"
   id="Mask_44" />
<path
   d="m 293.557,54.9937 h 18.426 V 28.2495 h -18.426 z"
   id="Mask_45" />
<path
   d="m 312.674,82.691 h 17.268 V 43.5021 h -17.268 z"
   id="Mask_46" />
<path
   d="m 312.674,82.691 h 17.268 V 43.5021 h -17.268 z"
   id="Mask_47" />
<path
   d="m 256.661,239.683 h 5.744 v -9.926 h -5.744 z"
   id="Mask_48" />
<path
   d="m 256.661,239.683 h 5.744 v -9.926 h -5.744 z"
   id="Mask_49" />
<path
   d="m 262.989,238.204 h 4.24 v -6.196 h -4.24 z"
   id="Mask_50" />
<path
   d="m 262.989,238.204 h 4.24 v -6.196 h -4.24 z"
   id="Mask_51" />
<path
   d="m 266.94,237.958 h 6.377 v -4.718 h -6.377 z"
   id="Mask_52" />
<path
   d="m 266.94,237.958 h 6.377 v -4.718 h -6.377 z"
   id="Mask_53" />
<path
   d="m 270.955,244.751 h 8.759 v -11.088 h -8.759 z"
   id="Mask_54" />
<path
   d="m 270.955,244.751 h 8.759 v -11.088 h -8.759 z"
   id="Mask_55" />
<path
   d="m 279.229,240.532 h 5.548 v -5.671 h -5.548 z"
   id="Mask_56" />
<path
   d="m 279.229,240.532 h 5.548 v -5.671 h -5.548 z"
   id="Mask_57" />
<path
   d="m 283.512,240.799 h 7.389 v -5.537 h -7.389 z"
   id="Mask_58" />
<path
   d="m 283.512,240.799 h 7.389 v -5.537 h -7.389 z"
   id="Mask_59" />
<path
   d="m 290.757,241.235 h 9.062 v -4.893 h -9.062 z"
   id="Mask_60" />
<path
   d="m 290.757,241.235 h 9.062 v -4.893 h -9.062 z"
   id="Mask_61" />
<path
   d="m 299.693,241.26 h 8.844 v -5.16 h -8.844 z"
   id="Mask_62" />
<path
   d="m 299.693,241.26 h 8.844 v -5.16 h -8.844 z"
   id="Mask_63" />
<path
   d="m 309.852,241.118 h 2.415 v -4.463 h -2.415 z"
   id="Mask_64" />
<path
   d="m 309.852,241.118 h 2.415 v -4.463 h -2.415 z"
   id="Mask_65" />
<path
   d="m 309.692,235.952 h 1.842 v -2.564 h -1.842 z"
   id="Mask_66" />
<path
   d="m 309.692,235.952 h 1.842 v -2.564 h -1.842 z"
   id="Mask_67" />
<path
   d="m 314.036,240.481 h 6.453 v -5.935 h -6.453 z"
   id="Mask_68" />
<path
   d="m 314.036,240.481 h 6.453 v -5.935 h -6.453 z"
   id="Mask_69" />
<path
   d="m 315.713,245.127 h 10.2 v -10.829 h -10.2 z"
   id="Mask_70" />
<path
   d="m 315.713,245.127 h 10.2 v -10.829 h -10.2 z"
   id="Mask_71" />
<path
   d="m 332.474,231.839 h 7.3 v -14.441 h -7.3 z"
   id="Mask_72" />
<path
   d="m 332.474,231.839 h 7.3 v -14.441 h -7.3 z"
   id="Mask_73" />
<path
   d="m 339.447,229.338 h 8.484 v -5.669 h -8.484 z"
   id="Mask_74" />
<path
   d="m 339.447,229.338 h 8.484 v -5.669 h -8.484 z"
   id="Mask_75" />
<path
   d="m 346.538,225.69 h 8.337 v -6.157 h -8.337 z"
   id="Mask_76" />
<path
   d="m 346.538,225.69 h 8.337 v -6.157 h -8.337 z"
   id="Mask_77" />
<path
   d="m 354.449,225.469 h 9.252 v -10.61 h -9.252 z"
   id="Mask_78" />
<path
   d="m 354.449,225.469 h 9.252 v -10.61 h -9.252 z"
   id="Mask_79" />
<path
   d="m 360.676,215.724 h 7.147 v -6.82 h -7.147 z"
   id="Mask_80" />
<path
   d="m 360.676,215.724 h 7.147 v -6.82 h -7.147 z"
   id="Mask_81" />
<path
   d="m 366.83,210.14 h 9.264 v -5.894 h -9.264 z"
   id="Mask_82" />
<path
   d="m 366.83,210.14 h 9.264 v -5.894 h -9.264 z"
   id="Mask_83" />
<path
   d="m 372.806,207.564 h 10.056 v -11.77 h -10.056 z"
   id="Mask_84" />
<path
   d="m 372.806,207.564 h 10.056 v -11.77 h -10.056 z"
   id="Mask_85" />
<path
   d="m 379.732,195.671 h 7.306 v -6.499 h -7.306 z"
   id="Mask_86" />
<path
   d="m 379.732,195.671 h 7.306 v -6.499 h -7.306 z"
   id="Mask_87" />
<path
   d="m 194.805,179.226 h 11.122 v -4.076 h -11.122 z"
   id="Mask_88" />
<path
   d="m 194.805,179.226 h 11.122 v -4.076 h -11.122 z"
   id="Mask_89" />
<path
   d="m 198.702,184.762 h 6.148 v -9.995 h -6.148 z"
   id="Mask_90" />
<path
   d="m 198.702,184.762 h 6.148 v -9.995 h -6.148 z"
   id="Mask_91" />
<path
   d="m 196.667,182.507 h 4.776 v -5.783 h -4.776 z"
   id="Mask_92" />
<path
   d="m 196.667,182.507 h 4.776 v -5.783 h -4.776 z"
   id="Mask_93" />
<path
   d="m 198.622,196.282 h 11.173 v -10.456 h -11.173 z"
   id="Mask_94" />
<path
   d="m 198.622,196.282 h 11.173 v -10.456 h -11.173 z"
   id="Mask_95" />
<path
   d="m 208.824,199.963 h 7.154 v -5.673 h -7.154 z"
   id="Mask_96" />
<path
   d="m 208.824,199.963 h 7.154 v -5.673 h -7.154 z"
   id="Mask_97" />
<path
   d="m 212.845,209.574 h 5.978 v -8.789 h -5.978 z"
   id="Mask_98" />
<path
   d="m 212.845,209.574 h 5.978 v -8.789 h -5.978 z"
   id="Mask_99" />
<path
   d="m 219.706,215.051 h 9.256 v -9.622 h -9.256 z"
   id="Mask_100" />
<path
   d="m 219.706,215.051 h 9.256 v -9.622 h -9.256 z"
   id="Mask_101" />
<path
   d="m 227.382,220.148 h 7.044 v -6.468 h -7.044 z"
   id="Mask_102" />
<path
   d="m 227.382,220.148 h 7.044 v -6.468 h -7.044 z"
   id="Mask_103" />
<path
   d="m 236.054,226.58 h 5.781 v -8.368 h -5.781 z"
   id="Mask_104" />
<path
   d="m 236.054,226.58 h 5.781 v -8.368 h -5.781 z"
   id="Mask_105" />
<path
   d="m 244.014,228.168 h 6.117 v -12.102 h -6.117 z"
   id="Mask_106" />
<path
   d="m 244.014,228.168 h 6.117 v -12.102 h -6.117 z"
   id="Mask_107" />

<clipPath
   id="ClipPath_4">
<use
   xlink:href="#Mask_4"
   fill="none"
   overflow="visible"
   id="use1186"
   x="0"
   y="0"
   width="100%"
   height="100%" />
</clipPath>
























































<clipPath
   clipPathUnits="userSpaceOnUse"
   id="clipPath8899"><g
     inkscape:label="Clip"
     id="use8901"><path
       stroke="#000000"
       stroke-width="4.01353"
       d="m 316.33468,170.70575 c 3.39608,-2.84805 5.73774,-8.12875 8.04554,-12.32981 4.00251,-10.32685 3.64454,-22.22767 -0.90122,-32.32906 -4.40074,-9.67148 -10.82094,-19.15708 -20.411,-24.27368 -3.94283,-2.104203 -7.4952,-3.140426 -11.91472,-3.545728 m -15.24625,79.975658 c -7.30905,-2.4243 -13.87536,-7.01349 -18.37766,-13.29275 -5.92995,-7.84745 -6.52975,-18.13485 -5.57209,-27.56843 1.07226,-12.92465 7.51708,-25.17226 17.47836,-33.45449 4.47241,-3.51366 9.35237,-8.079087 15.48236,-7.52136 l 4.96696,1.48275 1.26832,0.378622 v -2e-6"
       fill="none"
       stroke-linecap="round"
       opacity="1"
       stroke-linejoin="round"
       id="path3721"
       sodipodi:nodetypes="cscccccccsccc"
       style="stroke-width:7.114;stroke-miterlimit:4;stroke-dasharray:none" /></g></clipPath><clipPath
   id="ClipPath_4-3"><use
     xlink:href="#Mask_4"
     fill="none"
     overflow="visible"
     id="use1186-9"
     x="0"
     y="0"
     width="100%"
     height="100%" /></clipPath><clipPath
   id="ClipPath_5-8"><use
     xlink:href="#Mask_5"
     fill="none"
     overflow="visible"
     id="use1189-6"
     x="0"
     y="0"
     width="100%"
     height="100%" /></clipPath><clipPath
   clipPathUnits="userSpaceOnUse"
   id="clipPath8899-5"><g
     inkscape:label="Clip"
     id="use8901-7" /></clipPath><linearGradient
   inkscape:collect="always"
   xlink:href="#linearGradient15079"
   id="linearGradient15081"
   x1="240.53897"
   y1="102.29178"
   x2="244.71983"
   y2="88.355568"
   gradientUnits="userSpaceOnUse" /><linearGradient
   inkscape:collect="always"
   xlink:href="#linearGradient15087"
   id="linearGradient15089"
   x1="233.01341"
   y1="132.95143"
   x2="240.26024"
   y2="115.94926"
   gradientUnits="userSpaceOnUse" /><linearGradient
   inkscape:collect="always"
   xlink:href="#linearGradient15439"
   id="linearGradient15441"
   x1="253.32173"
   y1="158.33623"
   x2="247.72481"
   y2="144.46558"
   gradientUnits="userSpaceOnUse" /><linearGradient
   inkscape:collect="always"
   xlink:href="#linearGradient15511"
   id="linearGradient15513"
   x1="336.23291"
   y1="94.73423"
   x2="325.43417"
   y2="86.635193"
   gradientUnits="userSpaceOnUse" /><linearGradient
   inkscape:collect="always"
   xlink:href="#linearGradient15683"
   id="linearGradient15685"
   x1="337.63858"
   y1="145.56004"
   x2="339.66885"
   y2="134.0023"
   gradientUnits="userSpaceOnUse" /><linearGradient
   inkscape:collect="always"
   xlink:href="#linearGradient15755"
   id="linearGradient15757"
   x1="306.53641"
   y1="84.671791"
   x2="290.82919"
   y2="83.444664"
   gradientUnits="userSpaceOnUse" /><linearGradient
   inkscape:collect="always"
   xlink:href="#linearGradient15763"
   id="linearGradient15765"
   x1="326.66132"
   y1="186.76878"
   x2="333.53323"
   y2="175.72464"
   gradientUnits="userSpaceOnUse" /><linearGradient
   inkscape:collect="always"
   xlink:href="#linearGradient16147"
   id="linearGradient16149"
   x1="252.78824"
   y1="123.20359"
   x2="283.22101"
   y2="130.81178"
   gradientUnits="userSpaceOnUse" /></defs>
<g
   inkscape:groupmode="layer"
   id="layer1"
   inkscape:label="Layer 1"
   style="display:inline"
   transform="translate(-214.37524,-58.888911)"><path
     id="path1192"
     style="clip-rule:evenodd;fill:none;fill-rule:nonzero;stroke-linecap:round;stroke-linejoin:round"
     d="m 284.17259,179.80874 c 0.44331,0.0486 0.89014,0.0904 1.34041,0.12526 1.059,0.083 2.129,0.134 3.21,0.156 1.081,0.021 2.178,0.011 3.289,-0.03 1.112,-0.042 2.19,-0.14 3.234,-0.294 1.045,-0.155 2.101,-0.371 3.169,-0.647 1.069,-0.277 2.14,-0.592 3.215,-0.945 1.076,-0.354 2.128,-0.742 3.158,-1.164 1.03,-0.422 2.029,-0.871 2.999,-1.347 0.97,-0.476 1.92,-0.997 2.853,-1.563 0.932,-0.566 1.849,-1.186 2.751,-1.859 0.902,-0.674 1.751,-1.371 2.546,-2.092 0.796,-0.721 1.573,-1.49 2.332,-2.308 0.759,-0.818 1.494,-1.697 2.206,-2.637 0.712,-0.94 1.364,-1.907 1.955,-2.902 0.591,-0.994 1.126,-2.031 1.603,-3.111 0.477,-1.079 0.898,-2.189 1.261,-3.33 0.363,-1.141 0.674,-2.324 0.931,-3.55 0.258,-1.225 0.458,-2.49 0.601,-3.793 0.144,-1.303 0.234,-2.659 0.272,-4.067 0.038,-1.408 0.029,-2.774 -0.025,-4.098 -0.054,-1.324 -0.204,-2.654 -0.449,-3.989 -0.245,-1.336 -0.574,-2.733 -0.987,-4.191 -0.413,-1.459 -0.867,-2.844 -1.364,-4.156 -0.497,-1.311 -1.059,-2.627 -1.684,-3.947 -0.626,-1.319 -1.328,-2.659 -2.106,-4.019 -0.778,-1.359 -1.602,-2.682 -2.471,-3.967 -0.87,-1.284 -1.781,-2.531 -2.735,-3.739 -0.953,-1.208 -1.904,-2.325 -2.851,-3.35 -0.948,-1.025 -1.937,-1.981 -2.969,-2.869 -1.032,-0.887 -2.132,-1.726 -3.301,-2.515 -1.17,-0.789 -2.347,-1.477 -3.532,-2.062 -1.185,-0.585 -2.359,-1.078 -3.522,-1.48 -1.163,-0.4022 -2.323,-0.7243 -3.481,-0.9666 -1.157,-0.2423 -2.333,-0.4345 -3.528,-0.5765 -0.598,-0.071 -1.195,-0.142 -1.793,-0.2131" /><path
     id="path13506"
     style="clip-rule:evenodd;fill:none;fill-rule:nonzero;stroke-linecap:round;stroke-linejoin:round"
     d="m 281.36493,179.4053 c 0.34053,0.0596 0.68456,0.11616 1.03207,0.1697 0.58533,0.0902 1.17726,0.16816 1.77559,0.23374" /><path
     id="path13504"
     style="clip-rule:evenodd;fill:none;fill-rule:nonzero;stroke-linecap:round;stroke-linejoin:round"
     d="m 284.918,96.3661 c -0.48,0.0013 -0.96,0.0026 -1.439,0.0039 -0.96,0.0026 -1.698,0.0601 -2.217,0.1724 -0.518,0.1123 -1.095,0.3005 -1.73,0.5648 -0.635,0.2642 -1.357,0.6267 -2.166,1.0874 -0.81,0.4607 -1.658,0.9822 -2.544,1.5645 -0.887,0.5819 -1.816,1.2479 -2.786,1.9969 -0.971,0.748 -1.965,1.57 -2.98,2.463 -1.016,0.894 -2.029,1.854 -3.039,2.878 -1.01,1.025 -1.775,1.837 -2.296,2.435 -0.521,0.598 -1.023,1.2 -1.506,1.806 -0.483,0.606 -0.959,1.243 -1.427,1.912 -0.469,0.668 -0.934,1.364 -1.395,2.086 -0.461,0.723 -0.909,1.464 -1.346,2.224 -0.437,0.761 -0.863,1.562 -1.279,2.405 -0.416,0.843 -0.805,1.701 -1.168,2.575 -0.364,0.873 -0.711,1.793 -1.043,2.758 -0.331,0.965 -0.644,1.988 -0.939,3.068 -0.294,1.08 -0.551,2.15 -0.77,3.209 -0.219,1.059 -0.411,2.14 -0.576,3.244 -0.165,1.105 -0.297,2.231 -0.394,3.381 -0.097,1.149 -0.159,2.298 -0.188,3.448 -0.028,1.15 -0.045,2.284 -0.05,3.403 -0.005,1.119 0.023,2.232 0.087,3.337 0.063,1.105 0.188,2.211 0.373,3.317 0.186,1.105 0.418,2.166 0.696,3.18 0.277,1.015 0.604,2.022 0.98,3.021 0.376,0.999 0.798,1.972 1.265,2.917 0.468,0.946 0.993,1.866 1.575,2.76 0.582,0.894 1.218,1.77 1.907,2.627 0.688,0.857 1.366,1.638 2.033,2.343 0.666,0.704 1.367,1.386 2.103,2.044 0.735,0.658 1.551,1.324 2.446,1.997 0.895,0.673 1.814,1.302 2.755,1.886 0.942,0.584 1.85,1.095 2.725,1.533 0.875,0.438 1.8,0.843 2.773,1.213 0.974,0.371 1.989,0.711 3.046,1.021 1.058,0.31 2.066,0.57 3.026,0.779 0.63195,0.13772 1.27692,0.26416 1.93493,0.3793" /><path
     style="opacity:0;fill:#ffffff"
     id="path12111"
     d="m 278.40139,180.09208 c 1.07345,0.64842 2.00459,1.49213 2.87704,2.38573 0.0742,0.0806 0.1484,0.16127 0.2226,0.2419 0,0 12.39353,-7.89041 12.39353,-7.89041 v 0 c -0.10908,-0.0485 -0.21815,-0.097 -0.32723,-0.14553 -0.69101,-0.35428 -1.39893,-0.76559 -1.94802,-1.32445 -0.35048,-0.35671 -0.41205,-0.51407 -0.64647,-0.91874 0,0 -12.57145,7.6515 -12.57145,7.6515 z" /><g
     id="g13512"><path
       style="opacity:0;fill:#ffffff"
       id="path10886"
       d="m 287.18806,181.72474 c 0.8268,0.23828 1.36421,0.7703 1.96168,1.34763 0,0 12.00941,-7.4435 12.00941,-7.4435 v 0 c -0.59378,-0.50243 -1.20472,-0.96462 -1.47839,-1.72644 0,0 -12.4927,7.82231 -12.4927,7.82231 z" /><path
       style="opacity:0;fill:#ffffff"
       id="path12109"
       d="m 280.98402,181.01805 c 0.16624,0.0326 0.33693,0.0476 0.49872,0.0978 1.12921,0.35045 2.05373,1.16272 2.926,1.92556 0.12694,0.127 0.25484,0.25306 0.38082,0.38102 0.25363,0.25761 0.37486,0.40061 0.64181,0.63794 0.29408,0.26145 0.60378,0.50035 0.89153,0.7695 0.22924,0.23331 0.12487,0.12239 0.31497,0.33102 0,0 12.53938,-7.9819 12.53938,-7.9819 v 0 c -0.28165,-0.12495 -0.13218,-0.055 -0.44711,-0.21273 -0.33952,-0.19408 -0.63988,-0.413 -0.95579,-0.64256 -0.41788,-0.30365 -0.85909,-0.57394 -1.27328,-0.88291 -1.10159,-0.80199 -2.28255,-1.53516 -3.14729,-2.60956 0,0 -12.36976,8.18684 -12.36976,8.18684 z" /><path
       style="opacity:0;fill:#ffffff"
       id="path12113"
       d="m 274.28805,174.60355 c 1.67638,0.0506 3.26873,0.64861 4.72661,1.44782 0.21781,0.1194 0.42671,0.25435 0.64006,0.38153 0.44288,0.29163 0.8672,0.61065 1.31428,0.89602 0.14175,0.0905 0.2906,0.16977 0.43019,0.26355 0.23448,0.15753 0.54743,0.4116 0.76913,0.58673 0.33918,0.27223 0.64922,0.57779 0.96725,0.87378 0,0 12.37115,-7.6623 12.37115,-7.6623 v 0 c -0.35929,-0.31881 -0.70365,-0.65473 -1.08533,-0.94741 -0.23589,-0.17408 -0.61552,-0.45379 -0.84738,-0.62682 -0.14897,-0.11118 -0.29072,-0.23256 -0.44588,-0.33491 -0.52446,-0.34594 -1.11874,-0.56817 -1.69477,-0.80842 -0.56812,-0.23265 -1.13303,-0.47311 -1.70225,-0.70304 -1.18967,-0.48055 -2.43036,-0.87034 -3.48449,-1.62769 0,0 -11.95857,8.26116 -11.95857,8.26116 z" /></g><g
     id="g13464" /><path
     style="clip-rule:evenodd;display:inline;opacity:0;fill:none;fill-rule:nonzero;stroke:#000000;stroke-width:3.696;stroke-linecap:butt;stroke-linejoin:miter;stroke-miterlimit:4;stroke-dasharray:none;stroke-opacity:1"
     d="m 289.29611,100.00536 c 0,0 4.3947,0.33659 4.39467,0.33659 -4e-5,-1e-5 -4.39467,-0.33659 -4.39467,-0.33659 z"
     id="path2540"
     inkscape:path-effect="#path-effect2542"
     inkscape:original-d="m 284.8989,99.668586 c 4.39717,0.337314 8.79187,0.673894 13.18409,1.009754 -4.39229,-0.33586 -8.78692,-0.67244 -13.18409,-1.009754 z" /><path
     stroke="#000000"
     stroke-width="4.01353"
     d="m 314.7157,167.10617 c 3.39608,-2.84805 5.73774,-8.12875 8.04554,-12.32981 4.00251,-10.32685 3.64454,-22.22767 -0.90122,-32.32906 -4.40074,-9.67148 -10.82094,-19.15708 -20.411,-24.27368 -3.94283,-2.1042 -7.4952,-3.14043 -11.91472,-3.54573 m -15.24625,79.97566 c -7.30905,-2.4243 -13.87536,-7.01349 -18.37766,-13.29275 -5.92995,-7.84745 -6.52975,-18.13485 -5.57209,-27.56843 1.07226,-12.92465 7.51708,-25.17226 17.47836,-33.45449 4.47241,-3.51366 9.35237,-8.079087 15.48236,-7.52136 l 4.96696,1.48275 1.26832,0.37862 v 0"
     fill="none"
     stroke-linecap="round"
     opacity="1"
     stroke-linejoin="round"
     id="path3586-9"
     sodipodi:nodetypes="cscccccccsccc"
     style="clip-rule:evenodd;fill:url(#linearGradient16149);fill-opacity:1;fill-rule:nonzero;stroke-width:4;stroke-linecap:round;stroke-linejoin:round;stroke-miterlimit:4;stroke-dasharray:none" /></g><g
   inkscape:groupmode="layer"
   id="layer2"
   inkscape:label="gezicht"
   style="display:inline"
   transform="translate(-214.37524,-58.888911)"><path
     stroke="#000000"
     stroke-width="3.76597"
     d="m 277.373,102.9 c -1.025,-1.151 -1.684,-1.855 -1.979,-2.112 -0.295,-0.258 -0.894,-0.639 -1.797,-1.1444 -0.902,-0.5054 -1.81,-0.8124 -2.722,-0.9211 -0.912,-0.1087 -2.006,-0.0253 -3.28,0.2501 -1.275,0.2755 -2.654,0.7762 -4.139,1.5024 -1.484,0.726 -2.947,1.591 -4.388,2.596 -1.442,1.005 -2.682,2.079 -3.722,3.222 -1.041,1.143 -1.793,2.301 -2.259,3.473 -0.465,1.172 -0.745,2.446 -0.838,3.823 -0.093,1.376 -0.035,2.822 0.174,4.337 0.209,1.515 0.547,3.186 1.013,5.012 0.467,1.826 0.977,3.626 1.532,5.401 0.555,1.774 1.128,3.664 1.719,5.671 0.591,2.007 1.091,4.033 1.501,6.079 0.409,2.046 0.684,4.039 0.823,5.979 0.139,1.941 0.184,3.948 0.136,6.023 -0.048,2.075 -0.25,3.964 -0.606,5.667 -0.356,1.703 -0.828,3.262 -1.417,4.677 -0.589,1.415 -1.279,2.721 -2.072,3.918 -0.792,1.197 -1.614,2.244 -2.467,3.14 -0.852,0.896 -1.7,1.652 -2.544,2.268 -0.845,0.615 -1.735,1.104 -2.671,1.466 -0.937,0.362 -2.878,0.531 -5.825,0.505"
     fill="none"
     stroke-linecap="round"
     opacity="1"
     stroke-linejoin="round"
     id="path1256"
     style="clip-rule:evenodd;fill-rule:nonzero;stroke-linecap:round;stroke-linejoin:round" /><path
     stroke="#000000"
     stroke-width="3.28995"
     d="m 278.10199,111.34035 c -1.72641,-2.08254 -10.2678,-4.79594 -14.74081,1.0366 -2.87373,14.64706 0.95137,23.42843 -19.80294,22.33242 -6.2745,-0.38419 -12.95283,-2.76574 -17.40365,-7.1078 -6.17015,-6.01938 -8.49755,-11.273 -10.13438,-23.57022"
     fill="none"
     stroke-linecap="round"
     opacity="1"
     stroke-linejoin="round"
     id="path1272"
     style="clip-rule:evenodd;fill:url(#linearGradient15089);fill-opacity:1;fill-rule:nonzero;stroke-linecap:round;stroke-linejoin:round"
     sodipodi:nodetypes="cccac" /><path
     stroke="#000000"
     stroke-width="3.76598"
     d="m 285.37499,114.72735 c -3.01095,-1.10625 -21.50044,1.24046 -22.11009,4.76192 -1.70915,5.90269 -3.49811,11.75636 -3.06085,17.74532 1.66574,8.96119 2.50488,11.28914 -3.86978,19.60095 -7.37115,7.51144 -34.55608,5.78465 -37.36814,-2.44244"
     fill="none"
     stroke-linecap="round"
     opacity="1"
     stroke-linejoin="round"
     id="path1304"
     style="clip-rule:evenodd;fill:url(#linearGradient15441);fill-opacity:1;fill-rule:nonzero;stroke-width:3.93154;stroke-linecap:round;stroke-linejoin:round;stroke-miterlimit:4;stroke-dasharray:none"
     sodipodi:nodetypes="ccccc" /><path
     stroke="#000000"
     stroke-width="3.76597"
     d="m 248.71146,129.52997 c 0.598,-0.953 0.948,-1.636 1.05,-2.048 0.103,-0.411 0.142,-0.708 0.117,-0.892 -0.025,-0.183 -0.145,-0.336 -0.36,-0.46 -0.214,-0.124 -0.492,-0.199 -0.832,-0.225 -0.341,-0.026 -0.712,-0.002 -1.116,0.073 -0.403,0.075 -0.846,0.319 -1.329,0.733 -0.484,0.414 -0.935,0.948 -1.355,1.601 -0.421,0.652 -0.754,1.413 -1,2.283 -0.246,0.869 -0.383,1.791 -0.412,2.767 -0.029,0.975 0.098,2.069 0.381,3.281 0.282,1.213 0.913,3.25 1.891,6.111 0.977,2.861 1.689,5.049 2.135,6.564 0.445,1.515 0.812,2.978 1.101,4.39 0.289,1.413 0.459,2.732 0.511,3.957 0.051,1.226 -0.029,2.417 -0.241,3.573 -0.213,1.156 -0.636,2.241 -1.272,3.254 -0.635,1.014 -1.411,1.913 -2.328,2.699 -0.918,0.785 -2.94,1.756 -6.069,2.913"
     fill="none"
     stroke-linecap="round"
     opacity="1"
     stroke-linejoin="round"
     id="path1320"
     style="clip-rule:evenodd;fill-rule:nonzero;stroke-linecap:round;stroke-linejoin:round" /><path
     stroke="#000000"
     stroke-width="3.76598"
     d="m 297.986,103.569 c 0.084,-0.641 0.316,-1.116 0.695,-1.426 0.379,-0.31 0.932,-0.59 1.661,-0.839 0.728,-0.249 1.641,-0.444 2.736,-0.585 1.096,-0.141 2.335,-0.216 3.718,-0.224 1.382,-0.008 2.793,0.112 4.234,0.359 1.441,0.248 2.815,0.63 4.123,1.149 1.308,0.518 2.584,1.217 3.827,2.095 1.243,0.879 2.329,1.948 3.257,3.208 0.929,1.26 1.722,2.742 2.379,4.447 0.658,1.706 1.139,3.703 1.445,5.994 0.306,2.29 0.462,4.849 0.467,7.677 0.006,2.827 -0.169,5.666 -0.525,8.516 -0.355,2.851 -0.83,5.881 -1.424,9.092 -0.593,3.21 -1.159,6.399 -1.698,9.566 -0.539,3.168 -0.974,6.161 -1.306,8.979 -0.331,2.818 -0.539,5.475 -0.624,7.971 -0.084,2.496 -0.008,4.685 0.229,6.567 0.237,1.882 0.643,3.546 1.217,4.992 0.574,1.446 1.313,2.654 2.217,3.625 0.904,0.97 1.926,1.652 3.066,2.046 1.139,0.394 10.51057,0.66341 14.02047,-3.70882"
     fill="none"
     stroke-linecap="round"
     opacity="1"
     stroke-linejoin="round"
     id="path1336"
     style="clip-rule:evenodd;fill:url(#linearGradient15765);fill-opacity:1;fill-rule:nonzero;stroke-linecap:round;stroke-linejoin:round"
     sodipodi:nodetypes="csccsccccccccccccssccc" /><path
     stroke="#000000"
     stroke-width="3.76598"
     d="m 282.302,98.7248 c 0.112,-1.1373 0.53,-1.9049 1.253,-2.3029 0.723,-0.3979 1.653,-0.7811 2.79,-1.1495 1.137,-0.3684 2.407,-0.6805 3.81,-0.9364 1.403,-0.256 2.925,-0.439 4.567,-0.5492 1.641,-0.1102 3.433,-0.1665 5.377,-0.169 1.943,-0.0025 3.847,0.1523 5.713,0.4645 1.865,0.3122 3.686,0.7796 5.461,1.4024 1.775,0.6227 3.42,1.3918 4.935,2.3071 1.515,0.9154 2.897,1.9991 4.147,3.2512 1.249,1.252 2.318,2.631 3.206,4.136 0.887,1.506 1.637,3.163 2.249,4.971 0.613,1.809 1.085,3.645 1.416,5.508 0.332,1.863 0.563,3.764 0.694,5.703 0.131,1.938 0.207,3.873 0.227,5.805 0.02,1.931 0.019,3.759 -10e-4,5.485 -0.021,1.726 -0.109,3.49 -0.266,5.293 -0.157,1.802 -0.333,3.575 -0.528,5.319 -0.195,1.743 -0.704,5.276 -1.526,10.599"
     fill="none"
     stroke-linecap="round"
     opacity="1"
     stroke-linejoin="round"
     id="path1352"
     style="clip-rule:evenodd;fill-rule:nonzero;stroke-linecap:round;stroke-linejoin:round" /><path
     stroke="#000000"
     stroke-width="2.95128"
     d="m 293.28164,100.77679 c 0.75775,0.0275 1.35356,0.0706 1.78621,0.12927 0.43264,0.0586 1.26208,0.12292 2.48955,0.19282 1.22624,0.0699 3.10639,0.10294 5.64045,0.0991 2.5353,-0.004 4.96923,-0.0671 7.30427,-0.18959 2.33628,-0.12247 4.72571,-0.30386 7.17201,-0.54417 2.44506,-0.24032 4.93709,-0.55908 7.47733,-0.956391 2.54024,-0.39731 4.8691,-0.854886 6.98782,-1.372727 2.11872,-0.51784 3.96178,-1.089983 5.52673,-1.715982 1.56617,-0.626496 2.91479,-1.357325 4.04831,-2.192985 1.13229,-0.835162 1.96544,-1.712554 2.49698,-2.632177 0.53277,-0.919125 0.83561,-1.852659 0.90979,-2.800601 0.0741,-0.947941 -0.0878,-1.982827 -0.48704,-3.104657 -0.39926,-1.12183 -1.01857,-2.224781 -1.85913,-3.30935 -0.83933,-1.084568 -1.7825,-2.174601 -2.8295,-3.269603 -1.04576,-1.095001 -2.02972,-2.176589 -2.9494,-3.243769 -0.91967,-1.067179 -1.65394,-2.114982 -2.20153,-3.142913 -0.54638,-1.028426 -0.88508,-1.998725 -1.0161,-2.911392 -0.12979,-0.913164 -0.10755,-1.787078 0.068,-2.622737 0.17553,-0.83566 0.52288,-1.62412 1.04329,-2.365383 0.51918,-0.74176 1.13848,-1.394587 1.85791,-1.95898 0.71818,-0.564392 2.44134,-1.398065 5.16947,-2.500022"
     fill="none"
     stroke-linecap="round"
     opacity="1"
     stroke-linejoin="round"
     id="path1368"
     style="clip-rule:evenodd;fill:url(#linearGradient15513);fill-opacity:1;fill-rule:nonzero;stroke-linecap:round;stroke-linejoin:round" /><path
     stroke="#000000"
     stroke-width="3.76597"
     d="m 285.747,108.543 c 1.15478,-2.93113 4.93357,-3.81626 7.52869,-5.27129 6.70824,-2.85643 14.27654,-4.339475 21.51831,-3.03271 8.41237,1.9213 15.86987,7.85064 19.14867,15.89401 3.63739,9.08388 -3.76574,23.90372 3.69592,29.42703 10.93958,4.88722 18.20935,-2.65648 24.45883,-5.59307"
     fill="none"
     stroke-linecap="round"
     opacity="1"
     stroke-linejoin="round"
     id="path1384"
     style="clip-rule:evenodd;fill:url(#linearGradient15685);fill-opacity:1;fill-rule:nonzero;stroke-linecap:round;stroke-linejoin:round"
     sodipodi:nodetypes="cccccc" /><path
     stroke="#000000"
     stroke-width="3.76597"
     d="m 300.068,112.81 c 0.503,-0.691 1.003,-1.223 1.499,-1.597 0.496,-0.374 1.42,-0.808 2.772,-1.302 1.352,-0.494 2.714,-0.844 4.085,-1.051 1.371,-0.206 2.69,-0.296 3.955,-0.269 1.266,0.026 2.497,0.256 3.694,0.689 1.197,0.434 2.286,1.07 3.268,1.91 0.982,0.84 1.811,1.86 2.485,3.061 0.675,1.2 1.201,2.67 1.58,4.41 0.378,1.74 0.609,3.589 0.691,5.549 0.083,1.959 0.119,5.065 0.109,9.318 -0.01,4.252 0.033,7.46 0.129,9.622 0.096,2.163 1.56105,22.54769 9.9953,20.50052"
     fill="none"
     stroke-linecap="round"
     opacity="1"
     stroke-linejoin="round"
     id="path1400"
     style="clip-rule:evenodd;fill-rule:nonzero;stroke-linecap:round;stroke-linejoin:round"
     sodipodi:nodetypes="csscccscccssc" /><path
     stroke="#000000"
     stroke-width="3.76597"
     d="m 288.6426,96.07261 c 0.601,0.344 1.044,0.564 1.33,0.66 0.285,0.096 0.928,0.167 1.9301,0.213 1.0018,0.045 2.211,0.066 3.6278,0.061 1.4168,-0.005 2.5023,-0.095 3.2564,-0.271 0.7541,-0.175 1.4456,-0.412 2.0744,-0.711 0.6288,-0.298 1.2383,-0.709 1.8285,-1.233 0.5903,-0.523 1.1195,-1.198 1.5878,-2.024 0.4682,-0.827 0.8941,-1.833 1.2777,-3.017 0.3835,-1.185 0.6978,-2.481 0.9427,-3.889004 0.2449,-1.408 0.3972,-2.873 0.4568,-4.396 0.0596,-1.523 0.0162,-3.029 -0.1302,-4.519 -0.1464,-1.49 -0.3285,-2.609 -0.5462,-3.357 -0.2177,-0.749 -0.4513,-1.411 -0.7007,-1.988 -0.2494,-0.578 -0.7058,-1.372 -1.3693,-2.383 -0.6634,-1.012 -3.1597,-3.17 -7.4888,-6.474"
     fill="none"
     stroke-linecap="round"
     opacity="1"
     stroke-linejoin="round"
     id="path1416"
     style="clip-rule:evenodd;fill:url(#linearGradient15757);fill-opacity:1;fill-rule:nonzero;stroke-linecap:round;stroke-linejoin:round" /><path
     stroke="#000000"
     stroke-width="3.76598"
     d="m 299.026,128.683 c -0.083,0.096 -0.167,0.191 -0.25,0.287"
     fill="none"
     stroke-linecap="round"
     opacity="1"
     stroke-linejoin="round"
     id="path1208"
     style="clip-rule:evenodd;fill-rule:nonzero;stroke-linecap:round;stroke-linejoin:round" /><path
     stroke="#000000"
     stroke-width="3.76601"
     d="m 308.253,129.325 c 0.047,0.096 0.093,0.192 0.14,0.288"
     fill="none"
     stroke-linecap="round"
     opacity="1"
     stroke-linejoin="round"
     id="path1224"
     style="clip-rule:evenodd;fill-rule:nonzero;stroke-linecap:round;stroke-linejoin:round" /><path
     stroke="#000000"
     stroke-width="2.31752"
     d="m 292.159,142.002 c -0.195,0.192 -0.371,0.476 -0.53,0.854 -0.158,0.377 -0.272,0.88 -0.343,1.508 -0.071,0.628 -0.159,1.368 -0.265,2.22 -0.105,0.853 -0.336,2.468 -0.692,4.846 -0.356,2.378 -0.583,4.2 -0.682,5.465 -0.1,1.265 -0.124,2.424 -0.074,3.477 0.051,1.053 0.251,1.998 0.601,2.835 0.349,0.837 0.694,1.451 1.034,1.841 0.339,0.391 0.88,0.712 1.622,0.963 0.742,0.252 1.583,0.314 2.524,0.187 0.941,-0.126 1.898,-0.537 2.871,-1.233 0.973,-0.695 1.976,-1.608 3.009,-2.739 1.033,-1.13 1.979,-2.366 2.84,-3.707 0.86,-1.34 1.584,-2.631 2.17,-3.871 0.587,-1.24 1.091,-2.469 1.513,-3.687 0.422,-1.217 0.839,-2.554 1.252,-4.01 0.412,-1.456 0.718,-2.591 0.917,-3.404"
     fill="none"
     stroke-linecap="round"
     opacity="1"
     stroke-linejoin="round"
     id="path1240"
     style="clip-rule:evenodd;fill-rule:nonzero;stroke-linecap:round;stroke-linejoin:round" /><path
     stroke="#000000"
     stroke-width="3.76598"
     d="m 284.57124,112.87893 c -0.792,-0.226 -1.503,-0.375 -2.133,-0.445 -0.63,-0.07 -1.147,-0.107 -1.552,-0.111 -0.404,-0.004 -0.772,0.041 -1.104,0.135 -0.332,0.094 -0.648,0.277 -0.948,0.548 -0.3,0.271 -0.573,0.617 -0.817,1.04 -0.245,0.422 -0.474,0.952 -0.689,1.59 -0.215,0.638 -0.388,1.374 -0.52,2.209 -0.131,0.835 -0.212,1.778 -0.242,2.829 -0.031,1.051 -0.036,2.277 -0.017,3.68 0.019,1.402 0.187,3.898 0.506,7.488 0.319,3.59 0.549,6.418 0.69,8.485 0.14,2.067 0.253,4.15 0.34,6.251 0.086,2.101 0.135,4.209 0.147,6.325 0.012,2.116 0,4.196 -0.035,6.238 -0.036,2.043 -0.178,3.973 -0.427,5.79 -0.249,1.817 -0.602,3.552 -1.059,5.204 -0.457,1.652 -1.051,3.213 -1.782,4.685 -0.73,1.472 -1.599,2.857 -2.606,4.155 -1.007,1.298 -2.095,2.459 -3.263,3.485 -1.168,1.026 -2.321,1.858 -3.46,2.498 -1.139,0.64 -2.323,1.075 -3.554,1.305 -1.231,0.229 -3.54,-0.255 -6.927,-1.454"
     fill="none"
     stroke-linecap="round"
     opacity="1"
     stroke-linejoin="round"
     id="path1304-2"
     style="clip-rule:evenodd;display:inline;fill-rule:nonzero;stroke-linecap:round;stroke-linejoin:round" /><path
     stroke="#000000"
     stroke-width="3.76598"
     d="m 276.34191,107.74721 c -0.024,-0.234 -0.169,-0.424 -0.435,-0.571 -0.267,-0.146 -0.552,-0.227 -0.857,-0.243 -0.305,-0.016 -0.665,0.053 -1.081,0.208 -0.416,0.155 -0.951,0.471 -1.604,0.946 -0.654,0.476 -1.348,1.067 -2.082,1.775 -0.735,0.708 -1.466,1.527 -2.194,2.458 -0.728,0.931 -1.335,1.926 -1.822,2.985 -0.487,1.058 -0.798,2.229 -0.934,3.51 -0.136,1.282 -0.187,2.683 -0.154,4.205 0.033,1.521 0.39,4.221 1.07,8.1 0.681,3.879 1.41,7.888 2.188,12.029 0.778,4.141 1.301,7.114 1.569,8.92 0.268,1.805 0.452,3.568 0.553,5.288 0.1,1.72 0.126,3.36 0.076,4.921 -0.049,1.56 -0.313,3.035 -0.789,4.423 -0.477,1.389 -1.1,2.687 -1.869,3.894 -0.768,1.207 -1.633,2.32 -2.593,3.337 -0.959,1.017 -1.92,1.907 -2.882,2.667 -0.962,0.761 -1.937,1.39 -2.923,1.887 -0.986,0.498 -3.283,0.214 -6.89,-0.851"
     fill="none"
     stroke-linecap="round"
     opacity="1"
     stroke-linejoin="round"
     id="path1272-5"
     style="clip-rule:evenodd;display:inline;fill-rule:nonzero;stroke-linecap:round;stroke-linejoin:round" /></g><g
   inkscape:groupmode="layer"
   id="layer4"
   inkscape:label="haar"
   style="display:inline"
   transform="translate(-214.37524,-58.888911)"><path
     stroke="#000000"
     stroke-width="3.02436"
     d="m 281.44733,100.17272 c -0.54842,-3.552762 -4.24062,-5.758611 -7.82137,-5.747718 -4.84426,0.01473 -14.25473,8.817528 -18.78416,9.914348 -13.08705,3.16905 -21.09395,-4.06624 -25.68713,-10.564031 -4.57224,-6.468162 -0.29318,-11.058295 -4.34046,-18.514654"
     fill="none"
     stroke-linecap="round"
     opacity="1"
     stroke-linejoin="round"
     id="path1288"
     style="clip-rule:evenodd;display:inline;fill:url(#linearGradient15081);fill-opacity:1;fill-rule:nonzero;stroke-linecap:round;stroke-linejoin:round"
     sodipodi:nodetypes="csssc" /><rect
     style="opacity:0;fill:#f9f9f9;stroke-width:3.766;stroke-miterlimit:4;stroke-dasharray:none"
     id="rect13745"
     width="36.629074"
     height="27.031111"
     x="224.81421"
     y="75.260666" /><rect
     style="opacity:0;fill:#f9f9f9;stroke-width:3.766;stroke-miterlimit:4;stroke-dasharray:none"
     id="rect13747"
     width="36.629089"
     height="27.031113"
     x="224.81421"
     y="75.260666" /></g>
<g
   inkscape:groupmode="layer"
   id="layer3"
   inkscape:label="bulb"
   style="display:inline"
   transform="translate(-214.37524,-58.888911)"><path
     stroke="#000000"
     stroke-width="4"
     d="m 314.7157,167.10617 c -3.1974,3.28116 -5.21349,7.27595 -6.35607,11.45217 -1.00678,3.67986 -1.28324,6.12956 -1.72744,9.87415 -0.17707,1.71392 -0.30147,3.43411 -0.34966,5.15666"
     fill="none"
     stroke-linecap="round"
     opacity="1"
     stroke-linejoin="round"
     id="path2044"
     sodipodi:nodetypes="cscc"
     style="clip-rule:evenodd;fill-rule:nonzero;stroke-linecap:round;stroke-linejoin:round" /><path
     stroke="#000000"
     stroke-width="4"
     d="m 274.28805,174.60355 c 12.69242,0.11532 14.31581,24.72686 13.539,18.408"
     fill="none"
     stroke-linecap="round"
     opacity="1"
     stroke-linejoin="round"
     id="path2046"
     sodipodi:nodetypes="cc"
     style="clip-rule:evenodd;fill-rule:nonzero;stroke-width:3.9;stroke-linecap:round;stroke-linejoin:round;stroke-miterlimit:4;stroke-dasharray:none" /><path
     stroke="#000000"
     stroke-width="4"
     d="m 286.702,201.698 c 0,0 5.422,0.643 10.554,0.381 5.132,-0.263 9.975,-1.431 9.975,-1.431"
     fill="none"
     stroke-linecap="round"
     opacity="1"
     stroke-linejoin="round"
     id="path2048"
     style="clip-rule:evenodd;fill-rule:nonzero;stroke-linecap:round;stroke-linejoin:round" /><path
     stroke="#000000"
     stroke-width="4"
     d="m 287.615,216.469 c 0,0 3.95,0.468 8.299,0.442 0.746,-0.005 1.504,-0.024 2.256,-0.062 0.808,-0.041 1.608,-0.105 2.384,-0.183 4.152,-0.419 7.591,-1.248 7.591,-1.248"
     fill="none"
     stroke-linecap="round"
     opacity="1"
     stroke-linejoin="round"
     id="path2050"
     style="clip-rule:evenodd;fill-rule:nonzero;stroke-linecap:round;stroke-linejoin:round" /><path
     stroke="#000000"
     stroke-width="4"
     d="m 285.263,209.269 c 0,0 7.321,0.662 12.453,0.4 5.132,-0.263 12.409,-1.769 12.409,-1.769"
     fill="none"
     stroke-linecap="round"
     opacity="1"
     stroke-linejoin="round"
     id="path2052"
     style="clip-rule:evenodd;fill-rule:nonzero;stroke-linecap:round;stroke-linejoin:round" /><path
     style="opacity:0;fill:#ffffff"
     id="path10884"
     d="m 287.8692,163.66903 c 0.21775,0.34011 0.48366,0.65383 0.65326,1.02033 0.23166,0.50061 0.38493,1.03475 0.54238,1.56341 0.44965,1.50976 0.66719,2.57895 0.86239,4.15742 0.09,0.72788 0.11576,1.46237 0.18784,2.19224 0.0746,0.75536 0.16811,1.50874 0.25216,2.26312 0.0838,2.67414 0.0986,1.64131 0.006,4.16192 -0.0203,0.54952 -0.0387,1.09917 -0.069,1.64822 -0.0247,0.44743 -0.0567,0.89452 -0.0959,1.34091 -0.0304,0.34578 -0.11828,0.68814 -0.11283,1.03521 0.005,0.3154 0.0958,0.62355 0.14373,0.93533 0.10255,0.28375 0.17753,0.57903 0.30765,0.85124 0.0493,0.10309 1.01381,1.68464 1.04878,1.74721 0.31146,0.55732 0.54964,1.05867 0.77201,1.65212 0.0756,0.20161 0.13247,0.40973 0.19871,0.61459 0.0216,0.14508 0.0432,0.29015 0.0647,0.43522 0,0 12.66258,-7.18528 12.66258,-7.18528 v 0 c -0.10611,-0.11997 -0.21222,-0.23993 -0.31833,-0.35989 -0.50286,-0.64282 -1.00855,-1.28721 -1.38641,-2.0154 -0.40161,-0.77396 -0.40712,-0.96475 -0.69971,-1.75037 -0.0778,-0.20892 -0.1661,-0.41377 -0.24915,-0.62065 -0.13702,-0.51954 -0.28979,-1.03507 -0.41495,-1.55759 -0.22406,-0.93538 -0.35301,-1.67031 -0.52132,-2.63429 -0.39186,-2.2443 -0.26394,-1.45733 -0.53307,-3.91189 -0.0393,-0.79027 -0.0488,-1.58259 -0.11793,-2.37082 -0.0636,-0.72483 -0.20283,-1.44129 -0.28008,-2.1648 -0.20196,-1.89161 -0.22563,-2.64376 -0.27626,-4.53103 -0.0163,-0.60848 -0.0698,-1.2185 -0.0294,-1.82586 0.0331,-0.49728 0.16593,-0.98285 0.2489,-1.47428 0,0 -12.84646,6.78366 -12.84646,6.78366 z" /></g></svg>
